<svg width="102" height="102" xmlns="http://www.w3.org/2000/svg" xmlns:xlink="http://www.w3.org/1999/xlink" overflow="hidden"><defs><clipPath id="clip0"><path d="M384 143 486 143 486 245 384 245Z" fill-rule="evenodd" clip-rule="evenodd"/></clipPath><clipPath id="clip1"><path d="M385 144 485 144 485 244 385 244Z" fill-rule="evenodd" clip-rule="evenodd"/></clipPath><clipPath id="clip2"><path d="M385 145 485 145 485 245 385 245Z" fill-rule="evenodd" clip-rule="evenodd"/></clipPath><clipPath id="clip3"><path d="M385 145 485 145 485 271 385 271Z" fill-rule="evenodd" clip-rule="evenodd"/></clipPath></defs><g clip-path="url(#clip0)" transform="translate(-384 -143)"><g clip-path="url(#clip1)"><g clip-path="url(#clip2)"><g clip-path="url(#clip3)"><path d="M397 162.438C393.711 162.438 391 165.148 391 168.438L391 226.438C391 227.542 391.895 228.437 393 228.438L477 228.438C478.104 228.437 479 227.542 479 226.438L479 168.438C479 165.148 476.289 162.438 473 162.438L397 162.438ZM397 166.438 473 166.438C474.143 166.438 475 167.295 475 168.438L475 176.438 395 176.438 395 168.438C395 167.295 395.857 166.438 397 166.438ZM400 169.438C398.895 169.438 398 170.333 398 171.438 398 172.542 398.895 173.438 400 173.438 401.105 173.438 402 172.542 402 171.438 402 170.333 401.105 169.438 400 169.438ZM407 169.438C405.895 169.438 405 170.333 405 171.438 405 172.542 405.895 173.438 407 173.438 408.105 173.438 409 172.542 409 171.438 409 170.333 408.105 169.438 407 169.438ZM414 169.438C412.895 169.438 412 170.333 412 171.438 412 172.542 412.895 173.438 414 173.438 415.105 173.438 416 172.542 416 171.438 416 170.333 415.105 169.438 414 169.438ZM395 180.438 475 180.438 475 224.438 395 224.438 395 180.438ZM440.75 185.406C440.024 185.509 439.413 186.001 439.156 186.688L427.156 216.688C426.623 217.655 426.975 218.871 427.942 219.405 428.909 219.938 430.126 219.587 430.659 218.619 430.74 218.473 430.802 218.318 430.844 218.156L442.844 188.156C443.266 187.135 442.781 185.966 441.76 185.543 441.441 185.411 441.093 185.364 440.75 185.406ZM420.813 190.406C420.5 190.44 420.201 190.547 419.938 190.719L403.938 200.719C402.997 201.298 402.704 202.53 403.283 203.471 403.447 203.737 403.671 203.961 403.938 204.125L419.938 214.125C420.881 214.707 422.118 214.415 422.7 213.472 423.279 212.535 422.994 211.306 422.063 210.719L408.781 202.438 422.063 194.125C423.021 193.575 423.352 192.353 422.802 191.395 422.399 190.693 421.614 190.303 420.813 190.406ZM448.906 190.406C447.802 190.436 446.931 191.355 446.96 192.459 446.979 193.145 447.348 193.774 447.938 194.125L461.219 202.438 447.938 210.719C447 211.31 446.719 212.549 447.31 213.487 447.897 214.419 449.125 214.704 450.063 214.125L466.063 204.125C467.003 203.546 467.296 202.314 466.717 201.373 466.553 201.107 466.329 200.883 466.063 200.719L450.063 190.719C449.718 190.499 449.315 190.39 448.906 190.406Z" fill="#FFFFFF"/><text fill="#FFFFFF" font-family="Arial,Arial_MSFontService,sans-serif" font-weight="700" font-size="5" transform="translate(385 260)">Created by iconsphere<tspan x="0" y="5">from the Noun Project</tspan></text></g></g></g></g></svg>