<svg width="101" height="104" xmlns="http://www.w3.org/2000/svg" xmlns:xlink="http://www.w3.org/1999/xlink" overflow="hidden"><defs><clipPath id="clip0"><path d="M704 297 805 297 805 401 704 401Z" fill-rule="evenodd" clip-rule="evenodd"/></clipPath><clipPath id="clip1"><path d="M705 297 805 297 805 401 705 401Z" fill-rule="evenodd" clip-rule="evenodd"/></clipPath><clipPath id="clip2"><path d="M705 297 805 297 805 401 705 401Z" fill-rule="evenodd" clip-rule="evenodd"/></clipPath><clipPath id="clip3"><path d="M705 297 805 297 805 424 705 424Z" fill-rule="evenodd" clip-rule="evenodd"/></clipPath></defs><g clip-path="url(#clip0)" transform="translate(-704 -297)"><g clip-path="url(#clip1)"><g clip-path="url(#clip2)"><g clip-path="url(#clip3)"><path d="M5273.1 2400.1 5273.1 2398.1C5273.1 2395.3 5268.1 2394.1 5263.4 2394.1 5258.7 2394.1 5253.7 2395.4 5253.7 2398.1L5253.7 2400.1C5253.7 2401.9 5254.4 2403.7 5255.7 2405L5260.7 2409.9C5261 2410.2 5261.1 2410.5 5261.1 2410.9L5261.1 2417.3C5261.1 2417.7 5261.3 2418 5261.7 2418.1L5264.6 2419C5265.1 2419.1 5265.6 2418.8 5265.6 2418.2L5265.6 2411C5265.6 2410.6 5265.8 2410.3 5266 2410L5271.1 2405C5272.4 2403.7 5273.1 2401.9 5273.1 2400.1ZM5263.4 2400C5258.6 2400 5256 2398.7 5255.9 2398.2L5255.9 2398.2C5256 2397.7 5258.6 2396.4 5263.4 2396.4 5268.2 2396.4 5270.7 2397.7 5270.9 2398.2 5270.7 2398.7 5268.2 2400 5263.4 2400Z" fill="#FFFFFF" transform="matrix(1 0 -0 1.00807 705 297)"/><path d="M5268.4 2410.3C5267.8 2410.3 5267.4 2410.7 5267.4 2411.3 5267.4 2411.9 5267.8 2412.3 5268.4 2412.3L5272.7 2412.3C5273.3 2412.3 5273.7 2411.9 5273.7 2411.3 5273.7 2410.7 5273.3 2410.3 5272.7 2410.3L5268.4 2410.3Z" fill="#FFFFFF" transform="matrix(1 0 -0 1.00807 705 297)"/><path d="M5272.7 2413.7 5268.4 2413.7C5267.8 2413.7 5267.4 2414.1 5267.4 2414.7 5267.4 2415.3 5267.8 2415.7 5268.4 2415.7L5272.7 2415.7C5273.3 2415.7 5273.7 2415.3 5273.7 2414.7 5273.7 2414.1 5273.3 2413.7 5272.7 2413.7Z" fill="#FFFFFF" transform="matrix(1 0 -0 1.00807 705 297)"/><path d="M5272.7 2417 5268.4 2417C5267.8 2417 5267.4 2417.4 5267.4 2418 5267.4 2418.6 5267.8 2419 5268.4 2419L5272.7 2419C5273.3 2419 5273.7 2418.6 5273.7 2418 5273.7 2417.5 5273.3 2417 5272.7 2417Z" fill="#FFFFFF" transform="matrix(1 0 -0 1.00807 705 297)"/><path d="M82 8.4 72.3 8.4 72.3 4.9C72.3 3.6 71.2 2.5 69.9 2.5 68.6 2.5 67.5 3.6 67.5 4.9L67.5 8.3 32.6 8.3 32.6 4.9C32.6 3.6 31.5 2.5 30.2 2.5 28.9 2.5 27.8 3.6 27.8 4.9L27.8 8.3 18 8.3C10.3 8.4 4 14.6 4 22.3L4 83.6C4 91.3 10.3 97.5 17.9 97.5L81.9 97.5C89.6 97.5 95.8 91.2 95.8 83.6L95.8 22.3C96 14.6 89.7 8.4 82 8.4ZM18 13.2 27.7 13.2 27.7 16.6C27.7 17.9 28.8 19 30.1 19 31.4 19 32.5 17.9 32.5 16.6L32.5 13.2 67.4 13.2 67.4 16.6C67.4 17.9 68.5 19 69.8 19 71.1 19 72.2 17.9 72.2 16.6L72.2 13.2 82 13.2C87 13.2 91.1 17.3 91.1 22.3L91.1 26.5 8.9 26.5 8.9 22.3C8.9 17.3 13 13.2 18 13.2ZM82 92.6 18 92.6C13 92.6 8.9 88.5 8.9 83.5L8.9 31.4 91.1 31.4 91.1 83.6C91.1 88.6 87 92.6 82 92.6Z" fill="#FFFFFF" transform="matrix(1 0 -0 1.00807 705 297)"/><path d="M75.5 81.2 73.7 81.2 73.7 69C73.7 64.8 70.3 61.4 66.1 61.4L56.6 61.4 56.6 57.3C56.6 55.1 54.8 53.4 52.7 53.4L52 53.4 52 51.7C54.2 50.8 55.8 48.6 55.8 45.9 55.8 43.2 53.8 40.8 52.2 39 51.1 37.7 48.8 37.7 47.7 39L47.4 39.4C46.1 40.9 44.1 43.3 44.1 46 44.1 48.7 45.7 50.9 47.9 51.8L47.9 53.5 47.3 53.5C45.1 53.5 43.4 55.3 43.4 57.4L43.4 61.5 34 61.5C29.8 61.5 26.4 64.9 26.4 69.1L26.4 81.3 24.6 81.3C23.5 81.3 22.6 82.2 22.6 83.3 22.6 84.4 23.5 85.3 24.6 85.3L75.6 85.3C76.7 85.3 77.6 84.4 77.6 83.3 77.5 82.1 76.6 81.2 75.5 81.2ZM50 42.5C50.8 43.5 51.8 44.9 51.8 45.8 51.8 47 51 48 50 48 49 48 48.2 47 48.2 45.8 48.2 44.8 49.2 43.5 50 42.5ZM47.4 57.4 52.4 57.3 52.4 61.4 47.4 61.4 47.4 57.4ZM34 65.5 66 65.5C68 65.5 69.6 67.1 69.6 69.1L69.6 70.9C67.8 69.8 65.6 69.8 63.9 71L62 72.4C61.6 72.7 61.1 72.7 60.7 72.4L58.7 71C56.9 69.7 54.5 69.7 52.7 71L50.8 72.4C50.4 72.7 49.9 72.7 49.5 72.4L47.5 71C45.7 69.7 43.3 69.7 41.5 71L39.5 72.4C39.1 72.7 38.6 72.7 38.2 72.4L36.2 71C34.5 69.8 32.2 69.8 30.4 70.9L30.4 69C30.4 67 32 65.5 34 65.5ZM30.4 75.7C30.5 75.7 30.5 75.7 30.6 75.6L32.5 74.2C32.9 73.9 33.4 73.9 33.8 74.2L35.7 75.6C36.6 76.2 37.6 76.5 38.7 76.5 39.8 76.5 40.8 76.2 41.7 75.5L43.7 74.1C44.1 73.8 44.6 73.8 45 74.1L47 75.5C48.8 76.8 51.2 76.8 53 75.5L54.9 74.1C55.3 73.8 55.8 73.8 56.2 74.1L58.2 75.5C60 76.8 62.4 76.8 64.2 75.5L66.1 74.1C66.5 73.8 67 73.8 67.4 74.1L69.4 75.5C69.4 75.5 69.5 75.5 69.5 75.5L69.5 80.9 30.4 80.9 30.4 75.7Z" fill="#FFFFFF" transform="matrix(1 0 -0 1.00807 705 297)"/><text fill="#FFFFFF" font-family="Arial,Arial_MSFontService,sans-serif" font-weight="700" font-size="5" transform="matrix(1 0 0 1.00807 705 413)">Created by Adrien Coquet<tspan x="0" y="4.95998">from the Noun Project</tspan></text></g></g></g></g></svg>