<svg width="102" height="102" xmlns="http://www.w3.org/2000/svg" xmlns:xlink="http://www.w3.org/1999/xlink" overflow="hidden"><defs><clipPath id="clip0"><path d="M384 298 486 298 486 400 384 400Z" fill-rule="evenodd" clip-rule="evenodd"/></clipPath><clipPath id="clip1"><path d="M385 299 485 299 485 399 385 399Z" fill-rule="evenodd" clip-rule="evenodd"/></clipPath><clipPath id="clip2"><path d="M385 299 485 299 485 400 385 400Z" fill-rule="evenodd" clip-rule="evenodd"/></clipPath><clipPath id="clip3"><path d="M385 297 485 297 485 423 385 423Z" fill-rule="evenodd" clip-rule="evenodd"/></clipPath></defs><g clip-path="url(#clip0)" transform="translate(-384 -298)"><g clip-path="url(#clip1)"><g clip-path="url(#clip2)"><g clip-path="url(#clip3)"><path d="M387.5 394.018 482.5 394.018 482.5 388.018 476.5 388.018 476.5 337.318 443.3 328.217 443.3 387.918 438.8 387.918 438.8 300.818 393.5 309.818 393.5 388.018 387.5 388.018 387.5 394.018ZM462.9 345.118 468.9 345.118 468.9 352.918 462.9 352.918 462.9 345.118ZM462.9 359.018 468.9 359.018 468.9 366.818 462.9 366.818 462.9 359.018ZM462.9 372.918 468.9 372.918 468.9 380.718 462.9 380.718 462.9 372.918ZM450.8 345.118 456.8 345.118 456.8 352.918 450.8 352.918 450.8 345.118ZM450.8 359.018 456.8 359.018 456.8 366.818 450.8 366.818 450.8 359.018ZM450.8 372.918 456.8 372.918 456.8 380.718 450.8 380.718 450.8 372.918ZM425.2 317.418 431.2 317.418 431.2 325.217 425.2 325.217 425.2 317.418ZM425.2 331.318 431.2 331.318 431.2 339.118 425.2 339.118 425.2 331.318ZM425.2 345.118 431.2 345.118 431.2 352.918 425.2 352.918 425.2 345.118ZM425.2 359.018 431.2 359.018 431.2 366.818 425.2 366.818 425.2 359.018ZM413.1 317.418 419.1 317.418 419.1 325.217 413.1 325.217 413.1 317.418ZM413.1 331.318 419.1 331.318 419.1 339.118 413.1 339.118 413.1 331.318ZM413.1 345.118 419.1 345.118 419.1 352.918 413.1 352.918 413.1 345.118ZM413.1 359.018 419.1 359.018 419.1 366.818 413.1 366.818 413.1 359.018ZM401 317.418 407 317.418 407 325.217 401 325.217 401 317.418ZM401 331.318 407 331.318 407 339.118 401 339.118 401 331.318ZM401 345.118 407 345.118 407 352.918 401 352.918 401 345.118ZM401 359.018 407 359.018 407 366.818 401 366.818 401 359.018ZM410.4 372.918 421.9 372.918 421.9 388.018 410.4 388.018 410.4 372.918Z" fill="#FFFFFF"/><text fill="#FFFFFF" font-family="Arial,Arial_MSFontService,sans-serif" font-weight="700" font-size="5" transform="translate(385 412)">Created by Alice Design<tspan x="0" y="5">from the Noun Project</tspan></text></g></g></g></g></svg>