<svg width="61" height="61" xmlns="http://www.w3.org/2000/svg" xmlns:xlink="http://www.w3.org/1999/xlink" overflow="hidden"><defs><clipPath id="clip0"><path d="M404 310 465 310 465 371 404 371Z" fill-rule="evenodd" clip-rule="evenodd"/></clipPath><clipPath id="clip1"><path d="M405 311 465 311 465 370 405 370Z" fill-rule="evenodd" clip-rule="evenodd"/></clipPath><clipPath id="clip2"><path d="M405 314 465 314 465 370 405 370Z" fill-rule="evenodd" clip-rule="evenodd"/></clipPath><clipPath id="clip3"><path d="M402 314 467 314 467 394 402 394Z" fill-rule="evenodd" clip-rule="evenodd"/></clipPath></defs><g clip-path="url(#clip0)" transform="translate(-404 -310)"><g clip-path="url(#clip1)"><g clip-path="url(#clip2)"><g clip-path="url(#clip3)"><path d="M58.7119 17.7616 55.9983 17.7616 31.5761 4.44039 4.44039 19.2417 31.5761 34.043 55.9983 20.7218 57.2317 20.7218 57.2317 27.1357C57.2317 27.9532 57.8944 28.6159 58.7119 28.6159 59.5293 28.6159 60.192 27.9532 60.192 27.1357L60.192 19.2417C60.192 18.4243 59.5293 17.7616 58.7119 17.7616Z" fill="#FFFFFF" transform="matrix(1.01695 0 -0 1 402.115 314.72)"/><path d="M14.7816 28.2508 14.7816 40.8516 48.3312 40.8516 48.3312 28.2804 31.5761 37.4177 14.7816 28.2508Z" fill="#FFFFFF" transform="matrix(1.01695 0 -0 1 402.115 314.72)"/><text fill="#FFFFFF" font-family="Arial,Arial_MSFontService,sans-serif" font-weight="700" font-size="5" transform="matrix(1.00348 0 0 0.986754 402.115 393)">Created by LUTFI GANI AL ACHMAD<tspan x="0" y="5.06712">from the Noun Project</tspan></text></g></g></g></g></svg>