<svg width="59" height="91" xmlns="http://www.w3.org/2000/svg" xmlns:xlink="http://www.w3.org/1999/xlink" overflow="hidden"><defs><clipPath id="clip0"><path d="M265 310 324 310 324 401 265 401Z" fill-rule="evenodd" clip-rule="evenodd"/></clipPath><clipPath id="clip1"><path d="M265 311 323 311 323 400 265 400Z" fill-rule="evenodd" clip-rule="evenodd"/></clipPath><clipPath id="clip2"><path d="M265 311 323 311 323 400 265 400Z" fill-rule="evenodd" clip-rule="evenodd"/></clipPath><clipPath id="clip3"><path d="M265 311 323 311 323 421 265 421Z" fill-rule="evenodd" clip-rule="evenodd"/></clipPath></defs><g clip-path="url(#clip0)" transform="translate(-265 -310)"><g clip-path="url(#clip1)"><g clip-path="url(#clip2)"><g clip-path="url(#clip3)"><path d="M0 23.955C0-6.98688 57.8913-8.98313 57.8913 22.9569 57.8913 41.9213 38.9269 40.9232 34.9344 58.8894 32.9382 67.8726 20.9606 66.8744 20.9606 56.8932 20.9606 39.925 34.9344 38.9269 40.9232 27.9475 44.9157 19.9625 37.9288 11.9775 29.9438 11.9775 12.9756 11.9775 18.9644 30.9419 7.98501 30.9419 3.9925 30.9419 0 27.9475 0 23.955ZM27.9475 87.8351C15.97 87.8351 16.9681 69.8688 27.9475 69.8688 39.925 69.8688 39.925 87.8351 27.9475 87.8351Z" fill="#FFFFFF" fill-rule="evenodd" transform="matrix(1.00188 0 -0 1 265 311)"/><text fill="#FFFFFF" font-family="Arial,Arial_MSFontService,sans-serif" font-weight="700" font-size="5" transform="matrix(1 0 0 0.998126 265 414)">Created by heri sugianto<tspan x="0" y="5.00939">from the Noun Project</tspan></text></g></g></g></g></svg>