<svg width="102" height="101" xmlns="http://www.w3.org/2000/svg" xmlns:xlink="http://www.w3.org/1999/xlink" overflow="hidden"><defs><clipPath id="clip0"><path d="M384 413 486 413 486 514 384 514Z" fill-rule="evenodd" clip-rule="evenodd"/></clipPath><clipPath id="clip1"><path d="M385 413 485 413 485 513 385 513Z" fill-rule="evenodd" clip-rule="evenodd"/></clipPath><clipPath id="clip2"><path d="M385 413 485 413 485 513 385 513Z" fill-rule="evenodd" clip-rule="evenodd"/></clipPath><clipPath id="clip3"><path d="M385 411 485 411 485 537 385 537Z" fill-rule="evenodd" clip-rule="evenodd"/></clipPath></defs><g clip-path="url(#clip0)" transform="translate(-384 -413)"><g clip-path="url(#clip1)"><g clip-path="url(#clip2)"><g clip-path="url(#clip3)"><path d="M435.5 453.605C435.163 453.605 434.89 453.878 434.89 454.215L434.89 457.979 432.409 459.831C432.138 460.031 432.083 460.415 432.284 460.685 432.404 460.845 432.588 460.93 432.774 460.93 432.901 460.93 433.029 460.891 433.138 460.809L435.866 458.773C436.02 458.66 436.111 458.478 436.111 458.285L436.111 454.216C436.11 453.878 435.837 453.605 435.5 453.605Z" fill="#FFFFFF"/><path d="M452.865 493.191 452.865 455.09 435 442.217 417.134 455.09 417.134 493.192 427.652 493.192 427.652 480.853C427.652 476.794 430.942 473.504 435.001 473.504 439.06 473.504 442.35 476.794 442.35 480.853L442.35 493.192 452.865 493.192ZM435 463.89C431.628 463.89 428.896 461.156 428.896 457.785 428.896 454.414 431.628 451.681 435 451.681 438.371 451.681 441.104 454.414 441.104 457.785 441.104 461.156 438.371 463.89 435 463.89Z" fill="#FFFFFF"/><path d="M473.001 461.143 454.696 461.143 454.696 471.52 479.105 471.52C479.948 471.52 480.248 470.954 479.776 470.256L473.953 461.648C473.765 461.368 473.338 461.143 473.001 461.143Z" fill="#FFFFFF"/><path d="M455.824 454.07C456.394 454.07 456.957 453.803 457.314 453.304 457.903 452.482 457.713 451.337 456.891 450.749L436.065 435.845C435.923 435.743 435.768 435.673 435.61 435.617L435.61 431.51C438.682 430.963 442.671 433.278 446.616 431.967 446.696 431.941 446.761 431.85 446.761 431.765L446.761 424.634C446.761 424.532 446.684 424.479 446.588 424.51 442.156 425.961 437.672 422.861 434.498 424.396 434.437 424.424 434.39 424.505 434.39 424.573L434.39 431.918 434.39 435.617C434.231 435.674 434.076 435.743 433.934 435.846L413.108 450.75C412.286 451.338 412.095 452.482 412.684 453.305 413.273 454.128 414.417 454.316 415.24 453.728L435 439.586 454.76 453.728C455.082 453.958 455.455 454.07 455.824 454.07Z" fill="#FFFFFF"/><path d="M479.389 494.717 390.61 494.717C390.273 494.717 390 494.99 390 495.327L390 497.768C390 498.106 390.273 498.379 390.61 498.379L479.388 498.379C479.726 498.379 479.999 498.106 479.999 497.768L479.999 495.327C480 494.99 479.727 494.717 479.389 494.717Z" fill="#FFFFFF"/><path d="M477.121 473.352 454.696 473.352 454.696 493.192 477.121 493.192 477.121 473.352ZM464.841 489.223C464.841 489.392 464.704 489.529 464.535 489.529L459.651 489.529C459.483 489.529 459.346 489.392 459.346 489.223L459.346 484.34C459.346 484.171 459.483 484.034 459.651 484.034L464.535 484.034C464.704 484.034 464.841 484.171 464.841 484.34L464.841 489.223ZM464.841 481.593C464.841 481.76 464.704 481.898 464.535 481.898L459.651 481.898C459.483 481.898 459.346 481.76 459.346 481.593L459.346 476.708C459.346 476.54 459.483 476.403 459.651 476.403L464.535 476.403C464.704 476.403 464.841 476.54 464.841 476.708L464.841 481.593ZM472.471 489.223C472.471 489.392 472.335 489.529 472.166 489.529L467.282 489.529C467.114 489.529 466.977 489.392 466.977 489.223L466.977 484.34C466.977 484.171 467.114 484.034 467.282 484.034L472.166 484.034C472.335 484.034 472.471 484.171 472.471 484.34L472.471 489.223ZM472.471 481.593C472.471 481.76 472.335 481.898 472.166 481.898L467.282 481.898C467.114 481.898 466.977 481.76 466.977 481.593L466.977 476.708C466.977 476.54 467.114 476.403 467.282 476.403L472.166 476.403C472.335 476.403 472.471 476.54 472.471 476.708L472.471 481.593Z" fill="#FFFFFF"/><path d="M390.895 471.52 415.303 471.52 415.303 461.143 396.999 461.143C396.662 461.143 396.235 461.37 396.047 461.648L390.224 470.256C389.751 470.954 390.052 471.52 390.895 471.52Z" fill="#FFFFFF"/><path d="M415.303 493.191 415.303 473.351 392.879 473.351 392.879 493.191 415.303 493.191ZM405.159 476.708C405.159 476.54 405.296 476.403 405.464 476.403L410.348 476.403C410.517 476.403 410.654 476.54 410.654 476.708L410.654 481.593C410.654 481.76 410.517 481.898 410.348 481.898L405.464 481.898C405.296 481.898 405.159 481.76 405.159 481.593L405.159 476.708ZM405.159 484.34C405.159 484.171 405.296 484.034 405.464 484.034L410.348 484.034C410.517 484.034 410.654 484.171 410.654 484.34L410.654 489.223C410.654 489.392 410.517 489.529 410.348 489.529L405.464 489.529C405.296 489.529 405.159 489.392 405.159 489.223L405.159 484.34ZM397.528 476.708C397.528 476.54 397.665 476.403 397.834 476.403L402.717 476.403C402.886 476.403 403.023 476.54 403.023 476.708L403.023 481.593C403.023 481.76 402.886 481.898 402.717 481.898L397.834 481.898C397.665 481.898 397.528 481.76 397.528 481.593L397.528 476.708ZM397.528 484.34C397.528 484.171 397.665 484.034 397.834 484.034L402.717 484.034C402.886 484.034 403.023 484.171 403.023 484.34L403.023 489.223C403.023 489.392 402.886 489.529 402.717 489.529L397.834 489.529C397.665 489.529 397.528 489.392 397.528 489.223L397.528 484.34Z" fill="#FFFFFF"/><text fill="#FFFFFF" font-family="Arial,Arial_MSFontService,sans-serif" font-weight="700" font-size="5" transform="translate(385 526)">Created by David<tspan x="0" y="5">from the Noun Project</tspan></text></g></g></g></g></svg>